HIERARCHY
ROOT Hips
{
     OFFSET 12.88990 94.84120 -48.72550
     CHANNELS 6 Xposition Yposition Zposition Zrotation Xrotation Yrotation
     JOINT Spine
     {
          OFFSET 0.00000 11.89050 -0.00000
          CHANNELS 3 Zrotation Xrotation Yrotation
          JOINT Spine1
          {
               OFFSET 0.00000 25.65740 0.12766
               CHANNELS 3 Zrotation Xrotation Yrotation
               JOINT HEad
               {
                    OFFSET 0.00000 8.73416 0.01134
                    CHANNELS 3 Zrotation Xrotation Yrotation
                    End Site
                    {
                         OFFSET -0.29000 12.77420 2.51395
                    }
               }
               JOINT LeftShoulder1
               {
                    OFFSET 8.99000 -0.36225 -0.22000
                    CHANNELS 3 Zrotation Xrotation Yrotation
                    JOINT LeftArm
                    {
                         OFFSET 10.28270 -0.00338 0.32212
                         CHANNELS 3 Zrotation Xrotation Yrotation
                         JOINT LeftForeArm
                         {
                              OFFSET 32.76690 0.09914 -1.42434
                              CHANNELS 3 Zrotation Xrotation Yrotation
                              JOINT LeftHand
                              {
                                   OFFSET 27.56430 0.08536 1.02216
                                   CHANNELS 3 Zrotation Xrotation Yrotation
                                   End Site
                                   {
                                        OFFSET 16.74430 -0.60000 1.50291
                                   }
                              }
                         }
                    }
               }
               JOINT RightShoulder
               {
                    OFFSET -8.99000 -0.36225 -0.22000
                    CHANNELS 3 Zrotation Xrotation Yrotation
                    JOINT RightArm
                    {
                         OFFSET -10.28270 -0.00338 0.32212
                         CHANNELS 3 Zrotation Xrotation Yrotation
                         JOINT RightForeArm
                         {
                              OFFSET -32.89710 0.09914 -1.42434
                              CHANNELS 3 Zrotation Xrotation Yrotation
                              JOINT RightHand
                              {
                                   OFFSET -27.49210 0.08536 1.02216
                                   CHANNELS 3 Zrotation Xrotation Yrotation
                                   End Site
                                   {
                                        OFFSET -16.63120 -0.60000 1.50291
                                   }
                              }
                         }
                    }
               }
          }
     }
     JOINT LeftUpLeg
     {
          OFFSET 8.94580 -8.66707 0.10165
          CHANNELS 3 Zrotation Xrotation Yrotation
          JOINT LeftLeg
          {
               OFFSET -0.00000 -44.42270 1.37270
               CHANNELS 3 Zrotation Xrotation Yrotation
               JOINT LeftFoot
               {
                    OFFSET -0.25355 -42.09240 -1.46059
                    CHANNELS 3 Zrotation Xrotation Yrotation
                    JOINT LeftToes
                    {
                         OFFSET -0.04000 -4.41509 8.49910
                         CHANNELS 3 Zrotation Xrotation Yrotation
                         End Site
                         {
                              OFFSET 0.08000 -0.04745 9.77979
                         }
                    }
               }
          }
     }
     JOINT RightUpLeg
     {
          OFFSET -8.94580 -8.66707 0.10165
          CHANNELS 3 Zrotation Xrotation Yrotation
          JOINT RightLeg
          {
               OFFSET 0.00000 -44.42270 1.37270
               CHANNELS 3 Zrotation Xrotation Yrotation
               JOINT RightFoot
               {
                    OFFSET 0.25355 -42.09240 -1.46059
                    CHANNELS 3 Zrotation Xrotation Yrotation
                    JOINT RightToes
                    {
                         OFFSET 0.04000 -4.41509 8.49910
                         CHANNELS 3 Zrotation Xrotation Yrotation
                         End Site
                         {
                              OFFSET -0.08000 -0.13745 9.77979
                         }
                    }
               }
          }
     }
}
MOTION
Frames: 20
Frame Time: 0.01667
12.88990 94.84120 -48.72550 -6.71750 -14.67030 -30.14820 -1.32921 11.15670 0.01212 -1.96380 22.23340 0.22465 -5.73791 3.32857 7.53297 -0.00000 0.00000 -0.00000 -147.06200 -48.98090 -113.48900 -66.87430 62.05020 -57.76120 9.98277 8.50225 -12.99600 12.60900 1.15130 4.74013 97.19390 -7.50588 75.70680 28.78620 34.40130 88.34890 24.69840 13.01710 9.70040 20.75540 -2.91261 -15.69560 -22.84990 7.30219 59.95010 -8.95697 5.87823 1.00636 5.11964 -21.48800 -52.89190 -23.89990 8.09924 7.84404 43.08410 4.63644 -40.29490 -34.76300 -2.34031 1.53743 3.32811 -26.64720 11.03870 
13.03840 94.35370 -48.18710 -7.34519 -14.56550 -30.68080 -0.27100 11.20810 -0.10138 -1.85594 22.42960 0.32139 -5.86953 3.35164 7.64292 -0.00000 0.00000 -0.00000 -146.86600 -48.95290 -112.78400 -66.66240 62.35300 -58.20160 10.11640 8.48586 -12.94970 12.72380 1.19594 4.98286 97.75940 -7.00206 75.26830 29.05970 34.90030 88.73510 24.94130 12.99490 9.46657 20.80900 -3.27466 -14.92270 -21.67000 7.88965 57.80850 -9.61520 5.35490 1.04389 5.37751 -20.44110 -51.64410 -23.58710 7.22528 7.36602 43.41610 7.21500 -41.06010 -34.43780 -3.09406 1.28195 3.66346 -28.03870 11.61400 
13.15430 94.03250 -47.73260 -7.78854 -14.58750 -31.15620 0.13261 11.30590 -0.16305 -1.75228 22.65310 0.33526 -6.10249 3.37264 7.88813 -0.00000 0.00000 -0.00000 -146.71100 -49.13770 -112.22600 -66.64770 62.56660 -58.33830 10.20170 8.48620 -12.79180 12.85130 1.24217 5.22736 98.19130 -6.53625 74.77580 29.20510 35.26190 89.06220 25.17050 12.98130 9.28166 20.80110 -3.00333 -14.13650 -20.72670 7.63570 55.72490 -9.10365 6.18414 1.04603 5.37000 -20.45340 -51.37320 -23.49840 6.81010 7.14042 43.66680 8.78216 -41.63590 -34.59910 -3.38887 1.19511 4.04467 -29.63310 12.07130 
13.24270 93.87350 -47.38650 -8.05739 -14.70530 -31.57670 -0.05030 11.45210 -0.16820 -1.65955 22.90840 0.29284 -6.39200 3.34727 8.22969 -0.00000 0.00000 -0.00000 -146.62000 -49.46440 -111.80600 -66.81240 62.67400 -58.20740 10.21320 8.50210 -12.58180 12.95820 1.27318 5.38067 98.52020 -6.06542 74.24910 29.22450 35.51290 89.34420 25.36100 12.97420 9.14862 20.79770 -2.22143 -13.53200 -20.12950 6.61671 54.16000 -7.69631 8.18772 0.99720 5.18887 -21.20940 -52.31980 -23.56310 6.69828 7.13294 43.79470 9.56336 -42.08260 -35.10800 -3.31158 1.24113 4.45177 -31.34750 12.40290 
13.31890 93.81630 -47.12950 -8.17442 -14.91550 -31.95810 -0.65194 11.64550 -0.11682 -1.61049 23.20680 0.23478 -6.66039 3.24717 8.56518 -0.00000 0.00000 -0.00000 -146.47200 -49.81010 -111.42300 -66.93730 62.63990 -58.02090 10.12180 8.53171 -12.38780 13.04960 1.28156 5.39640 98.77060 -5.59404 73.72790 29.15610 35.70080 89.59380 25.50840 12.97150 9.05916 20.82090 -1.21549 -13.34150 -19.96910 5.21452 53.67020 -5.93762 10.69940 0.86816 4.96829 -22.05600 -54.22520 -23.75980 6.70133 7.24857 43.83040 9.98420 -42.47150 -35.75610 -3.04616 1.35599 4.86251 -33.07570 12.63850 
13.43010 93.68930 -46.86980 -8.37746 -15.06320 -32.36950 -0.95434 11.82830 -0.09081 -1.62529 23.53390 0.20369 -6.87597 3.10593 8.79625 -0.00000 0.00000 -0.00000 -146.16400 -50.07340 -111.01100 -66.88000 62.45990 -57.92530 9.94559 8.56895 -12.24670 13.16550 1.27847 5.33059 98.94120 -5.19367 73.26000 29.06590 35.86400 89.81650 25.63330 12.97030 8.98907 21.01010 -0.83904 -13.59560 -20.29400 4.94462 54.51970 -4.69789 12.64430 0.73751 4.81694 -22.55770 -56.35400 -23.83670 6.49856 7.27074 43.87940 10.79230 -42.92180 -36.27830 -2.92717 1.41926 5.24818 -34.68740 12.80530 
13.55710 93.53040 -46.60120 -8.58378 -15.14370 -32.81120 -1.02116 11.99050 -0.08522 -1.65121 23.84760 0.22119 -7.04909 2.99304 8.89685 -0.00000 0.00000 -0.00000 -145.79900 -50.22750 -110.66000 -66.76210 62.20350 -57.84540 9.74897 8.60370 -12.16790 13.31890 1.28066 5.28353 99.03830 -4.93475 72.88680 29.02820 36.01690 89.99460 25.76200 12.96850 8.91499 21.28360 -0.92400 -14.15350 -20.93990 5.31155 56.37590 -3.82084 13.90180 0.61677 4.77751 -22.65400 -58.12240 -23.85200 6.11598 7.22411 43.91410 11.86210 -43.34980 -36.67310 -2.95473 1.42815 5.56913 -36.03450 12.89710 
13.67340 93.40150 -46.32840 -8.65729 -15.19230 -33.24300 -1.09562 12.13310 -0.08016 -1.76938 24.12060 0.26283 -7.18285 2.94244 8.92957 -0.00000 0.00000 -0.00000 -145.59200 -50.30970 -110.52200 -66.75240 61.98320 -57.67630 9.59501 8.62715 -12.15170 13.47910 1.29401 5.30306 99.08080 -4.80408 72.61480 29.06530 36.15100 90.11960 25.88330 12.96330 8.83075 21.45750 -1.11868 -14.65790 -21.63230 5.67342 58.52300 -2.97845 14.68560 0.47445 4.80728 -22.54250 -59.44930 -23.93380 5.63689 7.15887 43.90400 12.95970 -43.65870 -36.94970 -3.07241 1.40071 5.79579 -37.02070 12.90590 
13.77770 93.31260 -46.04280 -8.59481 -15.19470 -33.62110 -1.19902 12.24240 -0.09096 -1.94196 24.32350 0.27782 -7.26309 2.93968 8.98940 -0.00000 0.00000 -0.00000 -145.62100 -50.37230 -110.63600 -66.83480 61.86450 -57.47640 9.52199 8.63404 -12.19830 13.61440 1.31320 5.36749 99.08930 -4.72276 72.40900 29.10930 36.25930 90.23230 25.95230 12.95380 8.75515 21.45090 -1.33588 -14.78300 -22.15560 6.02935 60.32230 -2.14050 15.15350 0.31764 4.79665 -22.55990 -60.44070 -24.09510 5.13053 7.06806 43.85780 13.95670 -43.81480 -37.10190 -3.22289 1.35596 5.94257 -37.69390 12.86960 
13.87630 93.26150 -45.74820 -8.45239 -15.15140 -33.93700 -1.35594 12.31820 -0.11387 -2.11380 24.45400 0.24389 -7.29651 2.96798 9.12427 -0.00000 0.00000 -0.00000 -145.76700 -50.44310 -110.89900 -66.87070 61.83390 -57.39640 9.55398 8.62071 -12.31000 13.71490 1.33075 5.43460 99.07220 -4.61182 72.22330 29.03750 36.33270 90.40960 25.94910 12.94830 8.73327 21.29630 -1.54222 -14.50910 -22.46540 6.43491 61.53500 -1.42006 15.42910 0.17660 4.67161 -22.90420 -61.12200 -24.32130 4.69267 6.99569 43.80470 14.69310 -43.85190 -37.19390 -3.30889 1.33039 6.06648 -38.24680 12.85360 
13.97440 93.23340 -45.45100 -8.32362 -15.05750 -34.22960 -1.56392 12.37050 -0.12806 -2.22812 24.53410 0.18320 -7.31376 3.01449 9.31140 -0.00000 0.00000 -0.00000 -145.90300 -50.51030 -111.17200 -66.80390 61.85650 -57.48710 9.70335 8.58500 -12.48680 13.78050 1.34039 5.46703 98.97780 -4.38401 72.02000 28.75830 36.29430 90.73790 25.93040 12.95580 8.77473 21.11990 -1.76173 -14.06250 -22.67050 6.94718 62.31280 -0.96849 15.54530 0.08631 4.45097 -23.50830 -61.55230 -24.55300 4.37946 7.01485 43.77570 15.07840 -43.83550 -37.30380 -3.26661 1.34966 6.21903 -38.85670 12.90320 
14.07220 93.21240 -45.15060 -8.27804 -14.89580 -34.53950 -1.78362 12.40860 -0.12154 -2.24971 24.58500 0.12493 -7.34333 3.04919 9.50390 -0.00000 0.00000 -0.00000 -146.02699 -50.54230 -111.41000 -66.72180 61.92490 -57.64710 9.95451 8.53032 -12.70470 13.79940 1.33747 5.44204 98.90790 -4.08338 71.82420 28.44030 36.24000 91.07940 25.94400 12.97250 8.83902 21.05450 -2.02406 -13.68060 -22.90760 7.55429 62.96930 -0.77477 15.51530 0.04724 4.17279 -24.25510 -61.92920 -24.70800 4.16434 7.12933 43.76300 15.19400 -43.78980 -37.43240 -3.11482 1.40773 6.40732 -39.54150 13.02360 
14.16850 93.18780 -44.83920 -8.33157 -14.65820 -34.89310 -1.96869 12.43640 -0.10024 -2.18374 24.61730 0.08026 -7.41388 3.05429 9.68265 -0.00000 0.00000 -0.00000 -146.20000 -50.52450 -111.63800 -66.67070 62.04030 -57.81310 10.24240 8.47033 -12.90790 13.74050 1.32003 5.35973 98.93240 -3.72801 71.65600 28.24060 36.20470 91.33270 26.03320 12.98670 8.85452 21.16230 -2.31604 -13.45390 -23.24980 8.18403 63.73570 -0.67019 15.36890 0.02622 3.83984 -25.11570 -62.45930 -24.73440 3.96880 7.26601 43.72630 15.24580 -43.69210 -37.52740 -2.92407 1.47813 6.60718 -40.22030 13.18560 
14.26600 93.15230 -44.50590 -8.46457 -14.36010 -35.31610 -2.09552 12.45700 -0.07431 -2.06578 24.63900 0.05104 -7.54464 3.04532 9.86480 -0.00000 0.00000 -0.00000 -146.44099 -50.47730 -111.89300 -66.56760 62.19470 -58.05900 10.48520 8.42217 -13.04130 13.56830 1.28698 5.22556 99.11380 -3.31632 71.52870 28.21960 36.20660 91.45990 26.18930 12.99160 8.79654 21.43270 -2.59405 -13.37870 -23.72500 8.76359 64.70440 -0.50900 15.10040 -0.00560 3.45603 -26.05550 -63.19300 -24.64060 3.72427 7.35823 43.63910 15.41340 -43.52580 -37.56820 -2.75271 1.53952 6.80388 -40.85650 13.36220 
14.37310 93.10050 -44.14110 -8.64615 -14.02890 -35.81950 -2.16122 12.47530 -0.05177 -1.93119 24.66130 0.03320 -7.72109 3.04118 10.06890 -0.00000 0.00000 -0.00000 -146.79401 -50.44700 -112.23200 -66.42780 62.40960 -58.37020 10.66950 8.38933 -13.09600 13.27190 1.23834 5.03958 99.45160 -2.82152 71.43750 28.32030 36.22900 91.51090 26.36600 12.98080 8.66344 21.81780 -2.83227 -13.47540 -24.35830 9.24739 65.90580 -0.26545 14.66100 -0.05212 3.05631 -26.97720 -64.02800 -24.47630 3.40764 7.37076 43.49790 15.77270 -43.30200 -37.58430 -2.60951 1.59002 7.01784 -41.51300 13.57300 
14.50160 93.03280 -43.74180 -8.84894 -13.70010 -36.38420 -2.18257 12.49970 -0.03761 -1.80229 24.70080 0.01654 -7.91804 3.05023 10.27460 -0.00000 0.00000 -0.00000 -147.32401 -50.46780 -112.71400 -66.38580 62.72000 -58.60440 10.83300 8.36372 -13.10320 12.89600 1.17931 4.81131 99.87850 -2.23872 71.36950 28.43550 36.25200 91.56830 26.50690 12.94790 8.45641 22.24540 -3.02962 -13.74990 -25.13650 9.63938 67.30520 -0.01499 14.04680 -0.09707 2.68392 -27.78830 -64.83140 -24.30290 3.05152 7.29222 43.30370 16.29880 -43.04320 -37.63070 -2.45719 1.64527 7.28915 -42.29550 13.86470 
14.66000 92.95690 -43.31130 -9.05807 -13.41930 -36.98160 -2.20348 12.53980 -0.02866 -1.69713 24.77510 -0.00502 -8.11958 3.07153 10.44720 -0.00000 0.00000 -0.00000 -147.90100 -50.53390 -113.23600 -66.39280 63.07140 -58.79430 10.96250 8.34644 -13.07560 12.54350 1.12026 4.56414 100.28600 -1.60411 71.30770 28.45780 36.26690 91.69820 26.55840 12.89860 8.22595 22.62600 -3.18545 -14.12320 -25.97870 10.00930 68.78610 0.11959 13.34860 -0.11752 2.36096 -28.46240 -65.50930 -24.18110 2.73174 7.16844 43.07190 16.87720 -42.78560 -37.76840 -2.25142 1.72409 7.64366 -43.25350 14.26900 
14.84910 92.87950 -42.85200 -9.26880 -13.21930 -37.59920 -2.27258 12.59620 -0.01511 -1.63134 24.88480 -0.02735 -8.29901 3.04484 10.61030 -0.00000 0.00000 -0.00000 -148.21500 -50.62330 -113.55200 -66.21340 63.31800 -59.16180 10.99280 8.34914 -12.99510 12.32420 1.07043 4.31926 100.56700 -0.97212 71.22610 28.32530 36.26890 91.92000 26.48820 12.85270 8.06720 22.89310 -3.29450 -14.48180 -26.80030 10.44160 70.22350 0.08455 12.68510 -0.10666 2.07290 -29.06430 -65.97780 -24.15730 2.51174 7.08838 42.84010 17.37490 -42.56910 -38.02520 -1.97784 1.83383 8.07910 -44.34740 14.78810 
15.06560 92.77870 -42.34630 -9.47469 -13.09470 -38.23900 -2.41453 12.66250 0.00620 -1.61109 25.01160 -0.04298 -8.40166 2.79391 10.87780 -0.00000 0.00000 -0.00000 -148.10800 -50.73140 -113.53600 -65.78510 63.35520 -59.75600 10.88840 8.37713 -12.86020 12.27410 1.03351 4.09457 100.67500 -0.39146 71.10610 28.05620 36.25880 92.19600 26.31490 12.82500 8.03253 23.01810 -3.43665 -14.73540 -27.59750 11.12740 71.56970 -0.09296 12.09460 -0.07221 1.76341 -29.75340 -66.16270 -24.25270 2.34100 7.09782 42.66750 17.84460 -42.43940 -38.32160 -1.70024 1.94867 8.56928 -45.48840 15.38920 
15.30290 92.65830 -41.79260 -9.66829 -13.01770 -38.91900 -2.61001 12.72880 0.03482 -1.62506 25.13770 -0.05067 -8.34947 2.09482 11.40050 -0.00000 0.00000 -0.00000 -147.73700 -50.86700 -113.30200 -65.37420 63.19980 -60.29920 10.68490 8.42173 -12.70170 12.33530 1.00791 3.90580 100.65200 0.11408 70.95310 27.67800 36.24620 92.48900 26.10680 12.81910 8.10589 23.04530 -3.62022 -14.90070 -28.42070 12.00810 72.89520 -0.23226 11.64480 -0.04651 1.36802 -30.68670 -66.08720 -24.44460 2.16123 7.20505 42.55000 18.32950 -42.34780 -38.55920 -1.44785 2.05252 9.06532 -46.56110 16.00710 
